<?xml version="1.0" encoding="UTF-8"?>
<svg version="1.1" xmlns="http://www.w3.org/2000/svg" width="64" height="64">
<path d="M0 0 C2.79248047 1.19335937 2.79248047 1.19335937 5.6171875 2.84375 C6.63554688 3.43027344 7.65390625 4.01679688 8.703125 4.62109375 C9.74984375 5.24113281 10.7965625 5.86117188 11.875 6.5 C13.47988281 7.43005859 13.47988281 7.43005859 15.1171875 8.37890625 C17.75172556 9.90787923 20.3787233 11.44843782 23 13 C23 14.65 23 16.3 23 18 C22.01 18 21.02 18 20 18 C20.01571045 19.30203369 20.01571045 19.30203369 20.03173828 20.63037109 C20.06579716 23.84699528 20.09088767 27.06352767 20.10986328 30.28027344 C20.11992877 31.67320781 20.13358234 33.06612102 20.15087891 34.45898438 C20.1751022 36.4595436 20.18540814 38.46025615 20.1953125 40.4609375 C20.21102295 42.26763916 20.21102295 42.26763916 20.22705078 44.11083984 C20 47 20 47 18 49 C16.1784668 49.25396729 16.1784668 49.25396729 13.94921875 49.25878906 C13.11495361 49.26509338 12.28068848 49.27139771 11.42114258 49.27789307 C10.51904053 49.2738446 9.61693848 49.26979614 8.6875 49.265625 C7.30050903 49.26849518 7.30050903 49.26849518 5.88549805 49.27142334 C3.92854541 49.27278566 1.97158376 49.26908596 0.01464844 49.26074219 C-2.9878359 49.25004334 -5.98972187 49.26063591 -8.9921875 49.2734375 C-10.89062633 49.27211591 -12.78906478 49.26955354 -14.6875 49.265625 C-15.58960205 49.26967346 -16.4917041 49.27372192 -17.42114258 49.27789307 C-18.67254028 49.26843658 -18.67254028 49.26843658 -19.94921875 49.25878906 C-20.68487061 49.25719788 -21.42052246 49.25560669 -22.1784668 49.25396729 C-24 49 -24 49 -26 47 C-26.22705078 44.11083984 -26.22705078 44.11083984 -26.1953125 40.4609375 C-26.18886719 39.15898438 -26.18242187 37.85703125 -26.17578125 36.515625 C-26.15906929 35.13541405 -26.14213939 33.75520571 -26.125 32.375 C-26.11497006 30.98698548 -26.10584423 29.59896411 -26.09765625 28.2109375 C-26.07401863 24.80711974 -26.04106867 21.40364494 -26 18 C-26.99 18 -27.98 18 -29 18 C-29 16.35 -29 14.7 -29 13 C-25.3037749 10.81216417 -21.59124281 8.65362987 -17.875 6.5 C-16.82828125 5.87996094 -15.7815625 5.25992187 -14.703125 4.62109375 C-13.68476563 4.03457031 -12.66640625 3.44804687 -11.6171875 2.84375 C-10.68503418 2.29912109 -9.75288086 1.75449219 -8.79248047 1.19335938 C-5.52980778 -0.20093544 -3.51783535 -0.41682685 0 0 Z " fill="#68E3FB" transform="translate(35,5)"/>
<path d="M0 0 C3.94661776 2.41182197 5.69855639 3.77103759 6.8125 8.3125 C5.64512825 13.61057179 2.74957987 16.23568701 -1 20 C-1.56332031 20.66902344 -2.12664063 21.33804688 -2.70703125 22.02734375 C-5.70369708 25.45912266 -8.07374424 27.45348815 -12.625 28.3125 C-16.46144475 28.45677655 -16.91048509 28.07490023 -20.0625 25.4375 C-23.00995475 20.2081448 -23.00995475 20.2081448 -22 16 C-19.94388763 13.05149868 -17.52758808 10.54718179 -15 8 C-14.35546875 7.3296875 -13.7109375 6.659375 -13.046875 5.96875 C-6.49401388 -0.74930929 -6.49401388 -0.74930929 0 0 Z " fill="#077994" transform="translate(39,20)"/>
<path d="M0 0 C2.79248047 1.19335937 2.79248047 1.19335937 5.6171875 2.84375 C6.63554688 3.43027344 7.65390625 4.01679688 8.703125 4.62109375 C9.74984375 5.24113281 10.7965625 5.86117188 11.875 6.5 C13.47988281 7.43005859 13.47988281 7.43005859 15.1171875 8.37890625 C17.75172556 9.90787923 20.3787233 11.44843782 23 13 C23 14.65 23 16.3 23 18 C16.25864344 17.50383616 11.31456658 13.89838755 5.72070312 10.41796875 C0.66632677 7.39475364 0.66632677 7.39475364 -5.06640625 7.1953125 C-6.51853516 7.59363281 -6.51853516 7.59363281 -8 8 C-8 7.34 -8 6.68 -8 6 C-9.65376718 6.73233973 -11.29787304 7.48652714 -12.9375 8.25 C-13.85402344 8.66765625 -14.77054688 9.0853125 -15.71484375 9.515625 C-18.16714168 10.76236096 -18.16714168 10.76236096 -18.640625 13.0625 C-18.75921875 13.701875 -18.8778125 14.34125 -19 15 C-22.67884625 17.28905989 -24.61551956 18 -29 18 C-29 16.35 -29 14.7 -29 13 C-25.3037749 10.81216417 -21.59124281 8.65362987 -17.875 6.5 C-16.82828125 5.87996094 -15.7815625 5.25992187 -14.703125 4.62109375 C-13.68476563 4.03457031 -12.66640625 3.44804687 -11.6171875 2.84375 C-10.68503418 2.29912109 -9.75288086 1.75449219 -8.79248047 1.19335938 C-5.52980778 -0.20093544 -3.51783535 -0.41682685 0 0 Z " fill="#F83F52" transform="translate(35,5)"/>
<path d="M0 0 C4.21258487 0.87762185 6.14550176 2.43068054 9 5.625 C9.8125 8.9375 9.8125 8.9375 9 12.625 C6.96990449 15.61506315 4.72752327 18.24921615 2 20.625 C1.34 20.625 0.68 20.625 0 20.625 C-1.5859375 18.98046875 -1.5859375 18.98046875 -3.375 16.8125 C-5.7171919 13.98020187 -7.98186585 11.73237561 -11 9.625 C-9.12297509 4.55703274 -5.28038958 1.10008116 0 0 Z " fill="#D13C4C" transform="translate(36,19.375)"/>
<path d="M0 0 C1.91329102 -0.01836914 1.91329102 -0.01836914 3.86523438 -0.03710938 C5.09435547 -0.03904297 6.32347656 -0.04097656 7.58984375 -0.04296875 C8.71124756 -0.04707764 9.83265137 -0.05118652 10.98803711 -0.05541992 C14.07683614 0.18863273 16.27435709 0.87610154 19.0625 2.1875 C18.7325 3.1775 18.4025 4.1675 18.0625 5.1875 C12.68167008 7.37373317 5.8168152 6.37213259 0.125 6.375 C-1.15052734 6.38724609 -2.42605469 6.39949219 -3.74023438 6.41210938 C-5.58391602 6.41500977 -5.58391602 6.41500977 -7.46484375 6.41796875 C-9.14694946 6.42413208 -9.14694946 6.42413208 -10.86303711 6.43041992 C-13.95183614 6.18636727 -16.14935709 5.49889846 -18.9375 4.1875 C-18.6075 3.1975 -18.2775 2.2075 -17.9375 1.1875 C-12.55667008 -0.99873317 -5.6918152 0.00286741 0 0 Z " fill="#000000" transform="translate(31.9375,57.8125)"/>
<path d="M0 0 C0.05791844 3.12492251 0.09356746 6.24970766 0.125 9.375 C0.14175781 10.26445313 0.15851562 11.15390625 0.17578125 12.0703125 C0.18222656 12.92109375 0.18867187 13.771875 0.1953125 14.6484375 C0.20578613 15.43395996 0.21625977 16.21948242 0.22705078 17.02880859 C0 19 0 19 -2 21 C-3.87939453 21.22705078 -3.87939453 21.22705078 -6.1328125 21.1953125 C-6.93847656 21.18886719 -7.74414062 21.18242188 -8.57421875 21.17578125 C-9.41597656 21.15902344 -10.25773437 21.14226563 -11.125 21.125 C-12.39923828 21.11146484 -12.39923828 21.11146484 -13.69921875 21.09765625 C-15.79959884 21.07405647 -17.89983444 21.03818483 -20 21 C-18.125 17.125 -18.125 17.125 -17 16 C-15.15108054 15.76636119 -13.29511969 15.58696365 -11.4375 15.4375 C-10.42558594 15.35371094 -9.41367187 15.26992188 -8.37109375 15.18359375 C-7.58863281 15.12300781 -6.80617188 15.06242187 -6 15 C-5.96261719 14.16855469 -5.92523438 13.33710937 -5.88671875 12.48046875 C-5.82097656 11.39378906 -5.75523438 10.30710937 -5.6875 9.1875 C-5.62949219 8.10855469 -5.57148437 7.02960937 -5.51171875 5.91796875 C-4.88831539 2.36314195 -3.89324807 0 0 0 Z " fill="#59C3D7" transform="translate(55,33)"/>
<path d="M0 0 C0 1.98 0 3.96 0 6 C-1.98 6.66 -3.96 7.32 -6 8 C-6 7.34 -6 6.68 -6 6 C-7.65376718 6.73233973 -9.29787304 7.48652714 -10.9375 8.25 C-11.85402344 8.66765625 -12.77054688 9.0853125 -13.71484375 9.515625 C-16.16714168 10.76236096 -16.16714168 10.76236096 -16.640625 13.0625 C-16.75921875 13.701875 -16.8778125 14.34125 -17 15 C-20.67884625 17.28905989 -22.61551956 18 -27 18 C-27 16.35 -27 14.7 -27 13 C-23.25795438 10.81937065 -19.50514777 8.6579762 -15.75 6.5 C-14.68652344 5.87996094 -13.62304688 5.25992187 -12.52734375 4.62109375 C-11.50253906 4.03457031 -10.47773438 3.44804687 -9.421875 2.84375 C-8.47924805 2.29912109 -7.53662109 1.75449219 -6.56542969 1.19335938 C-4 0 -4 0 0 0 Z " fill="#F97482" transform="translate(33,5)"/>
<path d="M0 0 C2.53618374 1.39081044 4.16671141 2.7670333 5.9375 5.0625 C6 7.0625 6 7.0625 4.9375 9.0625 C2.39936417 11.60063583 0.83791472 12.93686074 -2.75 13.4375 C-5.0625 13.0625 -5.0625 13.0625 -7.0625 11.0625 C-7.5 8.25 -7.5 8.25 -7.0625 5.0625 C-3.2605198 0.09880363 -3.2605198 0.09880363 0 0 Z " fill="#0687A5" transform="translate(28.0625,30.9375)"/>
<path d="M0 0 C0.66 0.66 1.32 1.32 2 2 C1.84971611 6.05766511 1.59155055 8.3008948 -1.0625 11.4375 C-1.701875 11.953125 -2.34125 12.46875 -3 13 C-6.36591866 11.55746343 -8.51047079 9.66735273 -11 7 C-8.82756153 1.74994037 -5.81674172 -0.76536075 0 0 Z " fill="#FB3B4E" transform="translate(39,24)"/>
<path d="M0 0 C0.33 1.98 0.66 3.96 1 6 C-5.5 10 -5.5 10 -10 10 C-10 8.35 -10 6.7 -10 5 C-8.52227402 4.1641146 -7.04277811 3.33135744 -5.5625 2.5 C-4.32693359 1.80390625 -4.32693359 1.80390625 -3.06640625 1.09375 C-1 0 -1 0 0 0 Z " fill="#FA6877" transform="translate(16,13)"/>
<path d="M0 0 C0 0.99 0 1.98 0 3 C-6.5 7 -6.5 7 -11 7 C-9.90537324 3.8255824 -9.01822665 3.01085843 -6.0625 1.25 C-3 0 -3 0 0 0 Z " fill="#F9F0F2" transform="translate(27,11)"/>
<path d="M0 0 C-2.54456151 2.96865509 -5.48994665 4.3619751 -9 6 C-8.8125 4.1875 -8.8125 4.1875 -8 2 C-3.744 -1.248 -3.744 -1.248 0 0 Z " fill="#FC7C89" transform="translate(25,10)"/>
</svg>
